<svg width="128" height="128" viewBox="0 0 31 46" fill="none" xmlns="http://www.w3.org/2000/svg">
<path d="M11.8926 23.3401C8.19876 19.7347 6.21212 8.58629 11.2667 3.55827C13.1155 1.7129 15.4831 0.471774 18.0576 0C17.1994 0.997984 16.7241 2.26815 16.7205 3.58367C16.7205 5.89355 17.243 8.08367 23.5567 15.055C28.6748 20.7272 30.0264 23.8917 30.0083 29.9359C30.0047 30.9393 29.8831 31.9373 29.6454 32.9117C29.5547 29.8615 28.3137 26.9583 26.1711 24.7772C20.2347 18.7966 14.7066 16.1329 13.921 10.2393C12.9903 16.0966 18.5366 19.3028 24.658 25.0113C28.3246 28.4534 29.0776 33.7536 27.0782 38.0903C26.4868 39.3841 25.6667 40.5635 24.658 41.5687C20.0678 46.1413 12.6256 46.1413 8.03366 41.5687C7.86312 41.4018 7.58371 41.0952 7.44764 40.9391C5.56441 38.8361 4.33614 36.1071 3.81363 32.8881C2.8321 26.5083 0.618671 24.6956 0 24.0823C3.9624 24.0823 5.37573 29.7218 5.65876 32.1187C6.03976 34.797 6.98863 37.477 8.92992 39.6363L8.95531 39.6653L8.98434 39.6944C11.7965 42.476 16.3395 42.4597 19.1316 39.6599C20.4706 38.3171 21.2217 36.499 21.2163 34.6046C21.2652 32.7139 20.4978 30.894 19.1081 29.6056C15.3525 26.3232 14.2657 25.6609 11.8926 23.3401Z" fill="#24AE1D"/>
<path d="M18.1089 30.6163C19.1829 31.6651 19.7889 33.1004 19.7925 34.5974C19.8197 37.7565 17.2707 40.3385 14.0993 40.3657C12.5535 40.3784 11.0694 39.7724 9.97904 38.68C4.22594 32.2476 8.21193 20.2373 8.21193 20.2373C10.6685 26.1563 12.5844 25.1093 18.1089 30.6163Z" fill="#89DF00"/>
</svg>
